<svg width="17" height="17" viewBox="0 0 17 17" fill="none" xmlns="http://www.w3.org/2000/svg">
<path d="M8.74493 0.958252C9.01542 0.958252 9.26238 1.11113 9.37998 1.35516L11.3968 5.50941L15.901 6.17386C16.1656 6.21208 16.3861 6.3973 16.4684 6.65308C16.5507 6.90886 16.4831 7.18522 16.2949 7.37338L13.0286 10.6133L13.7988 15.188C13.8429 15.4526 13.7342 15.7201 13.5166 15.8789C13.299 16.0376 13.008 16.0553 12.7728 15.9289L8.74493 13.7768L4.72004 15.9259C4.4819 16.0523 4.19378 16.0347 3.97621 15.8759C3.75865 15.7172 3.64693 15.4496 3.69103 15.185L4.46132 10.6104L1.19495 7.37338C1.00385 7.18522 0.93917 6.90592 1.02149 6.65308C1.10381 6.40024 1.32431 6.21502 1.58892 6.17386L6.09303 5.50941L8.10989 1.35516C8.23043 1.11113 8.47445 0.958252 8.74493 0.958252ZM8.74493 3.28087L7.20142 6.46198C7.09852 6.67072 6.90154 6.81772 6.66928 6.853L3.19123 7.36456L5.71671 9.86653C5.87841 10.0282 5.95485 10.2575 5.91663 10.4839L5.31981 14.0031L8.41271 12.3508C8.62145 12.2391 8.87136 12.2391 9.07716 12.3508L12.1701 14.0031L11.5762 10.4869C11.538 10.2605 11.6115 10.0312 11.7761 9.86947L14.3016 7.36751L10.8235 6.853C10.5942 6.81772 10.3943 6.67366 10.2914 6.46198L8.74493 3.28087Z" fill="#C71F37"/>
</svg>
