<svg width="18" height="16" viewBox="0 0 18 16" fill="none" xmlns="http://www.w3.org/2000/svg">
<path d="M10.0853 1.40945C9.92944 1.08605 9.60016 0.880249 9.23853 0.880249C8.87691 0.880249 8.55057 1.08605 8.39181 1.40945L6.50137 5.29911L2.2795 5.92239C1.92669 5.97531 1.63269 6.22227 1.52391 6.56038C1.41513 6.89848 1.50333 7.27186 1.75617 7.52176L4.81968 10.5529L4.09643 14.8365C4.03763 15.1893 4.18463 15.548 4.47569 15.7568C4.76676 15.9655 5.1519 15.992 5.46942 15.8244L9.24147 13.8105L13.0135 15.8244C13.331 15.992 13.7162 15.9685 14.0073 15.7568C14.2983 15.5451 14.4453 15.1893 14.3865 14.8365L13.6603 10.5529L16.7238 7.52176C16.9767 7.27186 17.0678 6.89848 16.9561 6.56038C16.8444 6.22227 16.5533 5.97531 16.2005 5.92239L11.9757 5.29911L10.0853 1.40945Z" fill="#C71F37"/>
</svg>
